#tb 0: 1/22050
#media_type 0: audio
#codec_id 0: pcm_s16le
#sample_rate 0: 22050
#channel_layout 0: 3
#channel_layout_name 0: stereo
0,          0,          0,     1468,     5872, 0x00000000
0,       1468,       1468,     1468,     5872, 0x00000000
0,       2936,       2936,     1468,     5872, 0x00000000
0,       4404,       4404,     1468,     5872, 0x00000000
0,       5872,       5872,     1468,     5872, 0x00000000
0,       7340,       7340,     1468,     5872, 0x00000000
0,       8808,       8808,     1468,     5872, 0x00000000
0,      10276,      10276,     1468,     5872, 0x00000000
0,      11744,      11744,     1468,     5872, 0x00000000
0,      13212,      13212,     1468,     5872, 0x00000000
0,      14680,      14680,     1468,     5872, 0x00000000
0,      16148,      16148,     1468,     5872, 0x00000000
0,      17616,      17616,     1468,     5872, 0x00000000
0,      19084,      19084,     1468,     5872, 0x00000000
0,      20552,      20552,     1468,     5872, 0x00000000
0,      22020,      22020,     1468,     5872, 0xc6f64777
0,      23488,      23488,     1468,     5872, 0x7c9e60e8
0,      24956,      24956,     1468,     5872, 0x46525c54
0,      26424,      26424,     1468,     5872, 0x842796bb
0,      27892,      27892,     1468,     5872, 0xb1f6cbd5
0,      29360,      29360,     1468,     5872, 0x0261a74b
0,      30828,      30828,     1468,     5872, 0x8218b1f9
0,      32296,      32296,     1468,     5872, 0xd7a2cae6
0,      33764,      33764,     1468,     5872, 0x69d34562
0,      35232,      35232,     1468,     5872, 0x9303ec65
0,      36700,      36700,     1468,     5872, 0xd5d963a1
0,      38168,      38168,     1468,     5872, 0x0557e06f
0,      39636,      39636,     1468,     5872, 0x1eb48b41
0,      41104,      41104,     1468,     5872, 0x70f5ca3f
0,      42572,      42572,     1468,     5872, 0xd39e5c5e
0,      44040,      44040,     1468,     5872, 0x29c59140
0,      45508,      45508,     1468,     5872, 0x7d95e643
0,      46976,      46976,     1468,     5872, 0x45353fd8
0,      48444,      48444,     1468,     5872, 0xad7b1b27
0,      49912,      49912,     1468,     5872, 0x1f0377b3
0,      51380,      51380,     1468,     5872, 0x6074541e
0,      52848,      52848,     1468,     5872, 0xa4f5e892
0,      54316,      54316,     1468,     5872, 0x084bc696
0,      55784,      55784,     1468,     5872, 0x67fdafce
0,      57252,      57252,     1468,     5872, 0x8dfd249d
0,      58720,      58720,     1468,     5872, 0x514184ee
0,      60188,      60188,     1468,     5872, 0xc0090b0d
0,      61656,      61656,     1468,     5872, 0xc1171cc8
0,      63124,      63124,     1468,     5872, 0x7d7dd07e
0,      64592,      64592,     1468,     5872, 0xe6aa619c
0,      66060,      66060,     1468,     5872, 0xd5aac0df
0,      67528,      67528,     1468,     5872, 0x3b68b390
